<svg xmlns="http://www.w3.org/2000/svg" fill="none" viewBox="0 0 30 26">
  <g clip-path="url(#SQ7RmaHqqDTa)">
    <path fill-rule="evenodd" clip-rule="evenodd" d="M2.015 9.289h25.198V23.45a1.857 1.857 0 01-1.847 1.85H3.862a1.851 1.851 0 01-1.847-1.85V9.29z" fill="#5680C1"/>
    <path fill-rule="evenodd" clip-rule="evenodd" d="M.452 7.71L.004 9.288v.179a3.68 3.68 0 001.069 2.553 3.671 3.671 0 005.121.089A3.683 3.683 0 007.35 9.595v-.306h-.013L8.546 0H3.862a1.853 1.853 0 00-1.79 1.392L.452 7.709z" fill="#84A8D9"/>
    <path fill-rule="evenodd" clip-rule="evenodd" d="M14.61 9.289V0H8.54L7.332 9.289v.179c.003.954.38 1.869 1.049 2.548a3.64 3.64 0 006.232-2.421v-.306h-.004z" fill="#4B5AA5"/>
    <path fill-rule="evenodd" clip-rule="evenodd" d="M7.346 9.622a3.696 3.696 0 01-1.832 2.989 3.68 3.68 0 01-3.5.107v.01l12.6 12.572h10.752a1.851 1.851 0 001.847-1.85V12.681a3.64 3.64 0 001.911-3.086v-.306h-7.247v.355a3.644 3.644 0 01-1.129 2.477 3.631 3.631 0 01-5.042-.035 3.644 3.644 0 01-1.094-2.493 3.644 3.644 0 01-1.097 2.5 3.632 3.632 0 01-6.17-2.472v.001z" fill="#5176BA"/>
    <path fill-rule="evenodd" clip-rule="evenodd" d="M21.768 8.558L20.655 0h-6.042v9.468a3.646 3.646 0 001.032 2.574 3.633 3.633 0 006.24-2.447v-.306h-.015l-.094-.73h-.008z" fill="#84A8D9"/>
    <path fill-rule="evenodd" clip-rule="evenodd" d="M21.877 9.289v.179a3.638 3.638 0 001.029 2.568 3.625 3.625 0 005.109.09 3.637 3.637 0 001.117-2.531v-.306l-.382-1.58-1.62-6.317A1.859 1.859 0 0025.33 0h-4.675l1.207 9.289h.015z" fill="#4B5AA5"/>
    <path d="M25.047 19.745v-.025a4.211 4.211 0 00-.067-.729h-3.43v1.412h1.96a1.678 1.678 0 01-.727 1.093v.915h1.182c.683-.633 1.084-1.565 1.093-2.673l-.011.007z" fill="#fff"/>
    <path d="M21.55 23.301c.983 0 1.808-.325 2.41-.883l-1.177-.915a2.196 2.196 0 01-3.276-1.155h-1.216v.945a3.643 3.643 0 003.254 2.008h.006z" fill="#fff"/>
    <path d="M19.513 20.348a2.153 2.153 0 010-1.387v-.938h-1.217a3.654 3.654 0 000 3.282l1.217-.945v-.012z" fill="#fff"/>
    <path d="M21.55 17.457a1.965 1.965 0 011.392.547l1.045-1.046a3.5 3.5 0 00-2.436-.957 3.637 3.637 0 00-3.255 2.01l1.217.945a2.176 2.176 0 012.038-1.504v.005z" fill="#fff"/>
    <path fill-rule="evenodd" clip-rule="evenodd" d="M7.344 9.289H.004v.179a3.68 3.68 0 001.069 2.553 3.671 3.671 0 005.121.089A3.684 3.684 0 007.35 9.595v-.306h-.006zm14.533 0h-7.258v.179a3.643 3.643 0 001.03 2.572 3.631 3.631 0 006.236-2.445v-.306h-.008z" fill="#7A9FD4"/>
    <path fill-rule="evenodd" clip-rule="evenodd" d="M14.597 9.289H7.348v.179a3.638 3.638 0 001.03 2.568 3.625 3.625 0 006.226-2.441v-.306h-.007zm14.529 0h-7.249v.179a3.637 3.637 0 001.029 2.568 3.625 3.625 0 006.226-2.441v-.306h-.006z" fill="#4857A3"/>
  </g>
  <defs>
    <clipPath id="SQ7RmaHqqDTa">
      <path fill="#fff" d="M0 0h29.128v25.299H0z"/>
    </clipPath>
  </defs>
</svg>
