<svg xmlns="http://www.w3.org/2000/svg" fill="none" viewBox="0 0 46 47">
  <g clip-path="url(#0UdT9cIXxa8aa)">
    <path d="M34.149 34.124a9.72 9.72 0 014.47 3.761l7.455-4.642a18.538 18.538 0 00-8.981-7.353 8.098 8.098 0 00-2.677 3.693 8.032 8.032 0 00-.247 4.541h-.02zM11.886 45.575l8.722-1.198a9.633 9.633 0 01.255-3.842 9.68 9.68 0 011.74-3.442c-.912-3.625-.78-7.43.38-10.985a18.658 18.658 0 00-8.838 7.89 18.428 18.428 0 00-2.26 11.577z" fill="#FFB700"/>
    <path d="M34.398 1.425l-8.722 1.208a9.582 9.582 0 01-.251 3.843 9.629 9.629 0 01-1.745 3.44 19.9 19.9 0 01-.38 10.986 18.649 18.649 0 008.844-7.892 18.417 18.417 0 002.254-11.585zM12.195 12.886a9.7 9.7 0 01-4.471-3.751L.22 13.776A18.458 18.458 0 009.2 21.12a8.098 8.098 0 002.677-3.693 8.032 8.032 0 00.247-4.541h.07z" fill="#F25178"/>
    <path d="M30.916 47l5.318-6.928a9.714 9.714 0 01-3.594-5.409 9.645 9.645 0 01.632-6.447 9.758 9.758 0 014.577-4.622 9.874 9.874 0 016.489-.742l1.995-8.511a18.751 18.751 0 00-12.271 1.447 18.53 18.53 0 00-8.653 8.751 18.318 18.318 0 00-1.217 12.197A18.446 18.446 0 0030.946 47h-.03z" fill="#45D9E6"/>
    <path d="M1.967 24.198L-.03 32.709c4.147.932 8.492.427 12.31-1.43a18.53 18.53 0 008.675-8.78 18.318 18.318 0 001.192-12.235A18.448 18.448 0 0015.328 0L10.02 6.928a9.714 9.714 0 013.601 5.405 9.645 9.645 0 01-.624 6.449 9.757 9.757 0 01-4.572 4.627 9.873 9.873 0 01-6.488.75l.03.039z" fill="#3FE8AB"/>
  </g>
  <defs>
    <clipPath id="0UdT9cIXxa8aa">
      <path fill="#fff" d="M0 0h46v47H0z"/>
    </clipPath>
  </defs>
</svg>
